<?xml version="1.0" encoding="UTF-8" standalone="no"?><svg xmlns="http://www.w3.org/2000/svg" xmlns:xlink="http://www.w3.org/1999/xlink" contentStyleType="text/css" height="861px" preserveAspectRatio="none" style="width:771px;height:861px;background:#FFFFFF;" version="1.1" viewBox="0 0 771 861" width="771px" zoomAndPan="magnify"><defs/><g><!--MD5=[fc1863079907faae5f551efa4424906d]
cluster RemoteServer--><g id="cluster_RemoteServer"><path d="M42.0725,133.5412 C55.3434,107.4283 76.2155,112.0983 89.7549,133.2706 C101.0933,104.3053 125.9546,105.913 143.7973,126.1225 C158.6188,108.5854 175.5118,107.6781 187.9285,128.8632 C205.1123,106.4443 223.4917,105.8655 237.9804,131.6611 C251.2784,103.9739 267.8556,106.5548 286.0979,126.6859 C301.2306,102.9892 319.0378,100.3872 337.4119,123.1021 C354.4972,101.6741 371.2151,104.9621 383.1977,128.3189 C400.2655,104.4064 415.4865,106.0245 432.0793,128.8161 C444.5326,103.8559 466.6875,104.5819 479.5056,128.4618 C491.8586,106.489 511.2214,101.0393 528.3876,123.1212 C548.3432,99.9491 569.2068,107.408 580.3002,132.6282 C591.4796,108.1524 615.952,109.0871 629.4569,130.1162 C641.4109,111.0042 659.2047,105.6749 673.4996,127.6041 C695.524,103.9156 712.1621,105.3013 728.0434,134 C729.1784,134.0523 729.5047,134.7147 729.148,135.7232 C753.4266,152.1455 757.4666,169.2204 735.1688,190.7398 C753.6683,206.1524 749.8854,221.1683 731.2081,233.1054 C755.715,245.3756 758.2638,269.9983 737.6827,287.6232 C759.0228,305.7202 752.205,323.2839 730.2641,334.5366 C753.382,345.0972 755.4247,360.2001 735.419,376.1081 C760.8545,390.6187 764.1569,406.7879 739.9512,425.8239 C760.5598,445.1433 755.2286,462.1352 731.9506,474.1959 C753.1801,486.8254 756.419,504.8326 736.0249,521.0793 C759.9009,535.364 758.2886,558.7108 734.2971,571.3504 C760.5806,585.2809 759.588,610.08 735.2195,624.8832 C756.8602,641.2659 759.6973,659.1508 734.503,674.862 C756.6243,689.7249 753.3091,703.6046 734.8227,718.7632 C758.9433,729.6775 756.0451,751.8243 736.2521,764.1224 C757.1796,786.4932 749.2016,809.6489 721.0434,818.22 C724.2671,819.7688 724.7245,822.2519 721.6243,824.3955 C704.3117,846.3017 689.8188,843.1786 675.1199,821.6002 C664.1595,846.4307 643.9598,845.1396 628.1819,826.8434 C612.8341,851.6575 594.8511,849.2847 577.1978,829.4778 C563.3608,850.9621 545.5838,847.9102 534.6473,826.5942 C516.5909,853.4888 496.4271,852.3501 479.2583,825.6764 C466.8033,848.44 452.6102,851.4472 435.1068,830.8125 C421.6788,851.3575 400.1961,851.56 387.799,829.6634 C375.0465,851.5713 351.7089,854.2152 339.1044,829.5087 C323.4204,851.2632 302.2764,848.433 292.3263,823.7346 C275.3163,852.4798 255.1462,849.0568 237.5534,824.3316 C223.1386,846.1736 206.6323,847.104 192.3525,824.1953 C182.1603,848.1116 160.6593,846.0035 146.3222,828.8396 C129.2404,848.8561 107.5402,847.9216 97.1852,821.6922 C74.8593,851.1995 46.8055,839.3774 34.0434,811.22 C37.4978,809.4461 40.3549,811.0684 39.7197,815.1706 C15.7708,802.8048 14.479,776.9605 37.8898,762.9356 C16.8829,749.012 13.609,728.2455 38.8517,715.255 C16.839,702.945 19.1769,687.6747 38.021,674.5314 C10.6952,655.2248 15.3377,637.7414 38.0126,618.4274 C17.3062,607.4062 11.0654,589.6406 33.4168,574.1502 C11.6635,556.431 14.9119,539.2855 36.0601,523.8194 C8.9735,513.6117 9.8707,495.422 29.1744,478.2105 C7.1625,460.4707 12.5447,444.3781 35.4656,432.8734 C6.6998,421.2993 6,395.3652 32.4816,380.6353 C9.9426,363.5369 15.4865,345.7692 38.3609,334.4521 C14.7437,318.6627 15.3053,300.7724 37.6319,284.3149 C13.8147,270.3745 9.0403,249.9878 34.7851,233.2827 C13.6487,217.8076 12.9736,198.0007 38.9149,186.6991 C9.6196,166.6351 15.438,145.1067 41.0434,127 C44.8885,128.1621 45.1952,131.2829 42.0725,133.5412 " fill="#ADD8E6" style="stroke:#181818;stroke-width:1.0;"/><text fill="#000000" font-family="sans-serif" font-size="14" font-weight="bold" lengthAdjust="spacing" textLength="99" x="331.5434" y="146.5332">Remote Server</text></g><!--MD5=[42591781c74864aa6bd8b9830e23a81c]
cluster Docker--><g id="cluster_Docker"><polygon fill="#D3D3D3" points="50.0434,173,60.0434,163,712.0434,163,712.0434,792.22,702.0434,802.22,50.0434,802.22,50.0434,173" style="stroke:#181818;stroke-width:1.0;"/><line style="stroke:#181818;stroke-width:1.0;" x1="702.0434" x2="712.0434" y1="173" y2="163"/><line style="stroke:#181818;stroke-width:1.0;" x1="50.0434" x2="702.0434" y1="173" y2="173"/><line style="stroke:#181818;stroke-width:1.0;" x1="702.0434" x2="702.0434" y1="173" y2="802.22"/><text fill="#000000" font-family="sans-serif" font-size="14" font-style="italic" lengthAdjust="spacing" textLength="59" x="347.5434" y="190.5332">«docker»</text><text fill="#000000" font-family="sans-serif" font-size="14" font-weight="bold" lengthAdjust="spacing" textLength="99" x="327.5434" y="208.1426">Docker engine</text></g><!--MD5=[12ddfeb2dbc74065392165b6f55039ec]
cluster AppContainer--><g id="cluster_AppContainer"><polygon fill="#FAFAD2" points="82.0434,347,92.0434,337,375.0434,337,375.0434,760.22,365.0434,770.22,82.0434,770.22,82.0434,347" style="stroke:#181818;stroke-width:1.0;"/><line style="stroke:#181818;stroke-width:1.0;" x1="365.0434" x2="375.0434" y1="347" y2="337"/><line style="stroke:#181818;stroke-width:1.0;" x1="82.0434" x2="365.0434" y1="347" y2="347"/><line style="stroke:#181818;stroke-width:1.0;" x1="365.0434" x2="365.0434" y1="347" y2="770.22"/><text fill="#000000" font-family="sans-serif" font-size="14" font-style="italic" lengthAdjust="spacing" textLength="103" x="173.0434" y="364.5332">«AppContainer»</text><text fill="#000000" font-family="sans-serif" font-size="14" font-weight="bold" lengthAdjust="spacing" textLength="153" x="148.0434" y="382.1426">App Service Container</text></g><!--MD5=[d64883541e3d62e3241c4d12decf100d]
cluster Application--><g id="cluster_Application"><path d="M116.5434,468.72 L196.5434,468.72 A3.75,3.75 0 0 1 199.0434,471.22 L206.0434,492.3294 L340.5434,492.3294 A2.5,2.5 0 0 1 343.0434,494.8294 L343.0434,735.72 A2.5,2.5 0 0 1 340.5434,738.22 L116.5434,738.22 A2.5,2.5 0 0 1 114.0434,735.72 L114.0434,471.22 A2.5,2.5 0 0 1 116.5434,468.72 " fill="#D3D3D3" style="stroke:#000000;stroke-width:1.5;"/><line style="stroke:#000000;stroke-width:1.5;" x1="114.0434" x2="206.0434" y1="492.3294" y2="492.3294"/><text fill="#000000" font-family="sans-serif" font-size="14" font-weight="bold" lengthAdjust="spacing" textLength="79" x="118.0434" y="485.2532">Application</text></g><!--MD5=[d8f997f44afa8743ad7472a298acfc89]
cluster DBContainer--><g id="cluster_DBContainer"><polygon fill="#FFB6C1" points="444.0434,617.72,454.0434,607.72,680.0434,607.72,680.0434,735.72,670.0434,745.72,444.0434,745.72,444.0434,617.72" style="stroke:#181818;stroke-width:1.0;"/><line style="stroke:#181818;stroke-width:1.0;" x1="670.0434" x2="680.0434" y1="617.72" y2="607.72"/><line style="stroke:#181818;stroke-width:1.0;" x1="444.0434" x2="670.0434" y1="617.72" y2="617.72"/><line style="stroke:#181818;stroke-width:1.0;" x1="670.0434" x2="670.0434" y1="617.72" y2="745.72"/><text fill="#000000" font-family="sans-serif" font-size="14" font-style="italic" lengthAdjust="spacing" textLength="97" x="509.5434" y="635.2532">«DBContainer»</text><text fill="#000000" font-family="sans-serif" font-size="14" font-weight="bold" lengthAdjust="spacing" textLength="145" x="485.5434" y="652.8626">DB Service Container</text></g><!--MD5=[6b8b02825cfe95eb344cc7ecdff3f734]
entity ApiServiceInterfaceContainer--><g id="elem_ApiServiceInterfaceContainer"><ellipse cx="139.0434" cy="252" fill="#F1F1F1" rx="8" ry="8" style="stroke:#181818;stroke-width:0.5;"/><text fill="#000000" font-family="sans-serif" font-size="14" lengthAdjust="spacing" textLength="84" x="97.0434" y="283.5332">HTTP_HOST</text></g><!--MD5=[c8429aac3e2c5cb74550e1a0f6371b57]
entity DbServiceInterfaceContainer--><g id="elem_DbServiceInterfaceContainer"><ellipse cx="408.0434" cy="698.22" fill="#F1F1F1" rx="8" ry="8" style="stroke:#181818;stroke-width:0.5;"/><text fill="#000000" font-family="sans-serif" font-size="14" lengthAdjust="spacing" textLength="110" x="353.0434" y="729.7532">DB-PORT_HOST</text></g><!--MD5=[5151972157682f9decd04efba8c789b7]
entity ApiService--><g id="elem_ApiService"><rect fill="#EEE8AA" height="47.6094" rx="2.5" ry="2.5" style="stroke:#181818;stroke-width:0.5;" width="144" x="183.0434" y="504.72"/><rect fill="#EEE8AA" height="10" style="stroke:#181818;stroke-width:0.5;" width="15" x="307.0434" y="509.72"/><rect fill="#EEE8AA" height="2" style="stroke:#181818;stroke-width:0.5;" width="4" x="305.0434" y="511.72"/><rect fill="#EEE8AA" height="2" style="stroke:#181818;stroke-width:0.5;" width="4" x="305.0434" y="515.72"/><text fill="#000000" font-family="sans-serif" font-size="14" lengthAdjust="spacing" textLength="104" x="198.0434" y="539.2532">Rest Api Service</text></g><!--MD5=[46d30a4f4884a64aef3690cad749b040]
entity ApiServiceInterface--><g id="elem_ApiServiceInterface"><ellipse cx="139.0434" cy="528.72" fill="#F1F1F1" rx="8" ry="8" style="stroke:#181818;stroke-width:0.5;"/><text fill="#000000" font-family="sans-serif" font-size="14" lengthAdjust="spacing" textLength="37" x="120.5434" y="560.2532">HTTP</text></g><!--MD5=[fe0bae4af69ca8947a410fa6d457e8ef]
entity Adapter--><g id="elem_Adapter"><rect fill="#EEE8AA" height="47.6094" rx="2.5" ry="2.5" style="stroke:#181818;stroke-width:0.5;" width="113" x="209.5434" y="674.22"/><rect fill="#EEE8AA" height="10" style="stroke:#181818;stroke-width:0.5;" width="15" x="302.5434" y="679.22"/><rect fill="#EEE8AA" height="2" style="stroke:#181818;stroke-width:0.5;" width="4" x="300.5434" y="681.22"/><rect fill="#EEE8AA" height="2" style="stroke:#181818;stroke-width:0.5;" width="4" x="300.5434" y="685.22"/><text fill="#000000" font-family="sans-serif" font-size="14" lengthAdjust="spacing" textLength="73" x="224.5434" y="708.7532">DB Adapter</text></g><!--MD5=[c657501c88b555fb773cc8bf0582f716]
entity DBInterface--><g id="elem_DBInterface"><ellipse cx="572.0434" cy="698.22" fill="#F1F1F1" rx="8" ry="8" style="stroke:#181818;stroke-width:0.5;"/><text fill="#000000" font-family="sans-serif" font-size="14" lengthAdjust="spacing" textLength="63" x="540.5434" y="729.7532">DB-PORT</text></g><!--MD5=[f9ba5bf973e7832d2ce5ed59077b93f7]
entity DB--><g id="elem_DB"><path d="M616.5434,684.72 C616.5434,674.72 636.0434,674.72 636.0434,674.72 C636.0434,674.72 655.5434,674.72 655.5434,684.72 L655.5434,711.3294 C655.5434,721.3294 636.0434,721.3294 636.0434,721.3294 C636.0434,721.3294 616.5434,721.3294 616.5434,711.3294 L616.5434,684.72 " fill="#2E8B57" style="stroke:#181818;stroke-width:0.5;"/><path d="M616.5434,684.72 C616.5434,694.72 636.0434,694.72 636.0434,694.72 C636.0434,694.72 655.5434,694.72 655.5434,684.72 " fill="none" style="stroke:#181818;stroke-width:0.5;"/><text fill="#000000" font-family="sans-serif" font-size="14" lengthAdjust="spacing" textLength="19" x="626.5434" y="713.2532">DB</text></g><!--MD5=[0ba5ee7700168656dc1b457c6fe9fdac]
entity Client--><g id="elem_Client"><rect fill="#EEE8AA" height="47.6094" rx="2.5" ry="2.5" style="stroke:#181818;stroke-width:0.5;" width="117" x="80.5434" y="7"/><rect fill="#EEE8AA" height="10" style="stroke:#181818;stroke-width:0.5;" width="15" x="177.5434" y="12"/><rect fill="#EEE8AA" height="2" style="stroke:#181818;stroke-width:0.5;" width="4" x="175.5434" y="14"/><rect fill="#EEE8AA" height="2" style="stroke:#181818;stroke-width:0.5;" width="4" x="175.5434" y="18"/><text fill="#000000" font-family="sans-serif" font-size="14" lengthAdjust="spacing" textLength="77" x="95.5434" y="41.5332">Client HTTP</text></g><!--MD5=[5afdbba86db38ddc1bef881e39ef3d06]
link ApiServiceInterface to ApiService--><g id="link_ApiServiceInterface_ApiService"><path d="M148.1034,528.72 C159.6634,528.72 171.2234,528.72 182.7734,528.72 " fill="none" id="ApiServiceInterface-ApiService" style="stroke:#181818;stroke-width:1.0;"/></g><!--MD5=[308aae72bcc6ccab052079793ab9b9ce]
reverse link ApiService to Adapter--><g id="link_ApiService_Adapter"><path d="M257.4334,566.09 C259.5834,598.92 262.6934,646.22 264.5234,674.13 " fill="none" id="ApiService-backto-Adapter" style="stroke:#181818;stroke-width:1.0;"/><polygon fill="#181818" points="256.5734,553.01,252.9777,559.2607,257.3646,564.9839,260.9603,558.7332,256.5734,553.01" style="stroke:#181818;stroke-width:1.0;"/></g><!--MD5=[692e46aaf26bcf3f319c013fe7d6d4c5]
link AppContainer to ApiServiceInterface--><g id="link_AppContainer_ApiServiceInterface"><path d="M139.0434,388.82 C139.0434,392.41 139.0434,490.61 139.0434,519.68 " fill="none" id="AppContainer-ApiServiceInterface" style="stroke:#181818;stroke-width:1.0;"/><text fill="#000000" font-family="sans-serif" font-size="13" lengthAdjust="spacing" textLength="46" x="140.0434" y="433.2151">5000:80</text></g><!--MD5=[5f896ca54952565c473aeb582c578808]
link ApiServiceInterfaceContainer to AppContainer--><g id="link_ApiServiceInterfaceContainer_AppContainer"><path d="M139.0434,261 C139.0434,275.24 139.0434,306.0725 139.0434,333.715 C139.0434,334.5788 139.0434,335.4395 139.0434,336.2965 C139.0434,336.5108 139.0434,336.7248 139.0434,336.9386 " fill="none" id="ApiServiceInterfaceContainer-AppContainer" style="stroke:#181818;stroke-width:1.0;"/></g><!--MD5=[aa80a8b7c2f7a94dea8f90a31fc54f8b]
link DBInterface to DB--><g id="link_DBInterface_DB"><path d="M581.5434,698.22 C593.1834,698.22 604.8234,698.22 616.4534,698.22 " fill="none" id="DBInterface-DB" style="stroke:#181818;stroke-width:1.0;"/></g><!--MD5=[133a60530c2e976404693b1d43b76649]
link DBInterface to DBContainer--><g id="link_DBInterface_DBContainer"><path d="M562.6934,698.22 C536.0534,698.22 461.1934,698.22 452.8134,698.22 " fill="none" id="DBInterface-DBContainer" style="stroke:#181818;stroke-width:1.0;"/><text fill="#000000" font-family="sans-serif" font-size="13" lengthAdjust="spacing" textLength="74" x="470.7234" y="691.7151">27017:27017</text></g><!--MD5=[844f0c14cc2003f83a95ef2c48341665]
link DbServiceInterfaceContainer to DBContainer--><g id="link_DbServiceInterfaceContainer_DBContainer"><path d="M417.3234,698.22 C423.0184,698.22 428.7159,698.22 434.4134,698.22 C437.2621,698.22 440.1109,698.22 442.9593,698.22 C443.3154,698.22 443.6714,698.22 444.0275,698.22 " fill="none" id="DbServiceInterfaceContainer-DBContainer" style="stroke:#181818;stroke-width:1.0;"/></g><!--MD5=[b18563d36d78ee7b2011dce888022b62]
link Client to ApiServiceInterfaceContainer--><g id="link_Client_ApiServiceInterfaceContainer"><path d="M139.0434,55.02 C139.0434,100.68 139.0434,201.41 139.0434,237.67 " fill="none" id="Client-to-ApiServiceInterfaceContainer" style="stroke:#181818;stroke-width:1.0;stroke-dasharray:7.0,7.0;"/><polygon fill="#181818" points="139.0434,242.92,143.0434,233.92,139.0434,237.92,135.0434,233.92,139.0434,242.92" style="stroke:#181818;stroke-width:1.0;"/><text fill="#000000" font-family="sans-serif" font-size="13" lengthAdjust="spacing" textLength="21" x="140.0434" y="99.4951">use</text></g><!--MD5=[691bda2dab2fbbc219483a6de49cb343]
link Adapter to DbServiceInterfaceContainer--><g id="link_Adapter_DbServiceInterfaceContainer"><path d="M322.5734,698.22 C348.4234,698.22 376.9434,698.22 393.6334,698.22 " fill="none" id="Adapter-to-DbServiceInterfaceContainer" style="stroke:#181818;stroke-width:1.0;stroke-dasharray:7.0,7.0;"/><polygon fill="#181818" points="398.8234,698.22,389.8234,694.22,393.8234,698.22,389.8234,702.22,398.8234,698.22" style="stroke:#181818;stroke-width:1.0;"/><text fill="#000000" font-family="sans-serif" font-size="13" lengthAdjust="spacing" textLength="21" x="350.2934" y="691.7151">use</text></g><!--MD5=[a124a78ba382a1ddc08695a7d0cc36e0]
@startuml Components

' Create the component + interface for REST API
cloud "Remote Server" as RemoteServer {
    node "Docker engine" as Docker <<docker>> {
        node "App Service Container" as AppContainer <<AppContainer>> {
            package Application {
                [Rest Api Service] as ApiService
                interface HTTP as ApiServiceInterface
                ApiServiceInterface - ApiService

                [DB Adapter] as Adapter
                ApiService *- - Adapter 
            }
        }
        AppContainer -down- ApiServiceInterface: 5000:80
        interface HTTP_HOST as ApiServiceInterfaceContainer
        ApiServiceInterfaceContainer -down- AppContainer
        
        node "DB Service Container" as DBContainer <<DBContainer>> {
            interface "DB-PORT" as DBInterface
            database DB {
                
            }
            DB -left- DBInterface
        }
        DBContainer -left- DBInterface: 27017:27017
        interface "DB-PORT_HOST" as DbServiceInterfaceContainer
        DBContainer -left- DbServiceInterfaceContainer
    }
}

' Create the component for HTTP client
[Client HTTP] as Client
Client ..> ApiServiceInterfaceContainer: use
Adapter .right.> DbServiceInterfaceContainer: use


skinparam component {
    backgroundColor PaleGoldenRod
}
skinparam package {
    backgroundColor LightGrey
}
skinparam cloud {
    backgroundColor lightblue
}
skinparam node {
    backgroundColor<<DBContainer>> LightPink
    backgroundColor<<AppContainer>> LightGoldenRodYellow
    backgroundColor<<docker>> LightGray
}
skinparam database {
    backgroundColor SeaGreen
}

@enduml

@startuml Components

cloud "Remote Server" as RemoteServer {
    node "Docker engine" as Docker <<docker>> {
        node "App Service Container" as AppContainer <<AppContainer>> {
            package Application {
                [Rest Api Service] as ApiService
                interface HTTP as ApiServiceInterface
                ApiServiceInterface - ApiService

                [DB Adapter] as Adapter
                ApiService *- - Adapter 
            }
        }
        AppContainer -down- ApiServiceInterface: 5000:80
        interface HTTP_HOST as ApiServiceInterfaceContainer
        ApiServiceInterfaceContainer -down- AppContainer
        
        node "DB Service Container" as DBContainer <<DBContainer>> {
            interface "DB-PORT" as DBInterface
            database DB {
                
            }
            DB -left- DBInterface
        }
        DBContainer -left- DBInterface: 27017:27017
        interface "DB-PORT_HOST" as DbServiceInterfaceContainer
        DBContainer -left- DbServiceInterfaceContainer
    }
}

[Client HTTP] as Client
Client ..> ApiServiceInterfaceContainer: use
Adapter .right.> DbServiceInterfaceContainer: use


skinparam component {
    backgroundColor PaleGoldenRod
}
skinparam package {
    backgroundColor LightGrey
}
skinparam cloud {
    backgroundColor lightblue
}
skinparam node {
    backgroundColor<<DBContainer>> LightPink
    backgroundColor<<AppContainer>> LightGoldenRodYellow
    backgroundColor<<docker>> LightGray
}
skinparam database {
    backgroundColor SeaGreen
}

@enduml

PlantUML version 1.2022.7(Mon Aug 22 19:01:30 CEST 2022)
(GPL source distribution)
Java Runtime: OpenJDK Runtime Environment
JVM: OpenJDK 64-Bit Server VM
Default Encoding: Cp1252
Language: en
Country: GB
--></g></svg>