<?xml version="1.0" encoding="UTF-8" standalone="no"?><svg xmlns="http://www.w3.org/2000/svg" xmlns:xlink="http://www.w3.org/1999/xlink" contentStyleType="text/css" height="860px" preserveAspectRatio="none" style="width:762px;height:860px;background:#FFFFFF;" version="1.1" viewBox="0 0 762 860" width="762px" zoomAndPan="magnify"><defs/><g><!--MD5=[fc1863079907faae5f551efa4424906d]
cluster RemoteServer--><g id="cluster_RemoteServer"><path d="M49.2268,129.5069 C65.8623,109.9973 79.7355,111.6371 91.3173,134.5241 C104.2611,112.0229 125.9146,107.6807 140.7458,132.5548 C149.6991,110.6018 169.1453,104.3014 185.7221,124.4014 C201.6998,102.7313 222.2713,103.539 233.8647,128.8902 C249.0533,104.1773 264.8735,106.037 280.1118,128.8419 C293.0393,107.5322 314.8833,103.655 328.8392,127.7379 C342.8502,96.6523 363.2738,100.0464 383.375,121.4047 C398.9327,97.0331 416.4146,99.7711 430.9207,122.4669 C445.6738,104.3296 457.7227,107.1573 471.1694,123.9712 C488.7022,106.2452 506.2228,104.4116 519.05,129.2628 C536.2834,106.8034 554.3241,102.9845 573.3419,127.1867 C588.0544,110.2621 603.2311,109.1455 615.2134,130.197 C631.2202,106.1301 650.7145,113.3312 662.9232,134.2272 C678.2034,113.1915 699.2704,109.884 714.7485,134 C717.4233,133.5612 717.9566,135.0109 717.4876,137.2344 C741.7786,153.3724 739.0149,168.1306 718.6337,185.3331 C745.2827,194.25 749.5452,213.6165 726.7112,231.2401 C753.7863,249.7276 755.5584,266.9265 726.5434,285.2397 C745.5651,302.2481 750.3759,319.2081 723.6392,333.4606 C747.9745,344.082 745.5895,361.0882 729.0907,376.8411 C749.6271,391.2601 745.9083,413.4524 725.6783,424.9819 C752.3876,442.0723 754.4329,459.3705 728.9965,479.6273 C748.9378,490.2316 752.7622,507.456 733.458,522.1755 C750.3724,541.7116 747.7704,558.6131 724.049,570.1854 C753.5874,587.8624 748.7737,607.9488 722.9933,624.5516 C744.2697,638.8814 742.323,657.7547 720.6419,669.8548 C741.2063,687.754 741.8038,704.2405 718.6988,720.463 C739.4179,731.7187 741.5604,752.6933 720.3456,765.4829 C739.0052,787.5002 738.4542,807.9944 707.7485,818.22 C711.9104,820.2796 713.0407,823.5509 708.9063,826.7382 C692.7182,849.4536 670.7478,846.3543 661.4317,820.0789 C650.1638,839.3186 636.7841,841.9839 621.082,825.0209 C604.4158,846.2915 586.5284,843.7324 572.4856,822.0526 C555.2742,846.1305 538.811,853.4256 518.0721,825.7624 C505.49,848.7747 486.9995,853.3531 471.2975,828.8325 C454.6054,849.1279 439.3513,850.2923 423.0356,828.4019 C410.0964,849.6791 390.5717,850.9749 376.8259,829.2691 C363.2328,846.5444 346.7099,845.4275 335.9527,826.1021 C319.654,847.6999 300.2881,848.0807 283.7127,826.4362 C270.1986,845.5648 250.9516,846.8665 237.8159,826.002 C226.4505,849.1726 204.0576,851.498 192.016,826.6468 C172.8575,850.6452 155.9062,850.6154 137.4283,825.8844 C124.3755,845.5746 109.7611,845.6796 96.9133,825.6752 C72.1577,849.8247 46.1783,844.3784 34.7485,811.22 C37.1813,811.0124 37.935,812.6225 36.8468,814.6004 C12.868,800.6914 15.4236,780.7246 38.4379,768.4352 C14.9181,755.9099 11.9539,732.5562 34.9386,716.8748 C17.9174,700.9431 15.5581,679.7743 42.3817,670.9482 C14.31,659.8714 10.6387,636.9891 35.8011,619.1493 C17.9688,602.6567 20.9198,587.3392 41.2896,575.6688 C21.9156,562.0374 20.1372,544.6362 39.5889,529.5723 C13.6919,518.0096 6,492.9059 32.4821,474.5748 C12.9006,459.7841 12.4753,442.2432 35.7176,430.6035 C9.7023,413.5392 14.0551,396.1899 36.5493,379.9217 C14.3768,366.5576 10.8046,347.5904 34.477,332.234 C14.4865,315.778 15.467,295.4616 42.0916,286.8219 C19.9484,276.1722 14.7422,255.1325 36.465,239.2901 C11.887,219.0136 13.4221,196.4631 43.0466,182.4645 C14.2212,169.2067 19.8035,141.446 41.7485,127 C45.454,124.3736 47.9629,124.8501 49.2268,129.5069 " fill="#ADD8E6" style="stroke:#181818;stroke-width:1.0;"/><text fill="#000000" font-family="sans-serif" font-size="14" font-weight="bold" lengthAdjust="spacing" textLength="99" x="325.2485" y="146.5332">Remote Server</text></g><!--MD5=[42591781c74864aa6bd8b9830e23a81c]
cluster Docker--><g id="cluster_Docker"><polygon fill="#D3D3D3" points="50.7485,173,60.7485,163,698.7485,163,698.7485,792.22,688.7485,802.22,50.7485,802.22,50.7485,173" style="stroke:#181818;stroke-width:1.0;"/><line style="stroke:#181818;stroke-width:1.0;" x1="688.7485" x2="698.7485" y1="173" y2="163"/><line style="stroke:#181818;stroke-width:1.0;" x1="50.7485" x2="688.7485" y1="173" y2="173"/><line style="stroke:#181818;stroke-width:1.0;" x1="688.7485" x2="688.7485" y1="173" y2="802.22"/><text fill="#000000" font-family="sans-serif" font-size="14" font-style="italic" lengthAdjust="spacing" textLength="59" x="341.2485" y="190.5332">«docker»</text><text fill="#000000" font-family="sans-serif" font-size="14" font-weight="bold" lengthAdjust="spacing" textLength="99" x="321.2485" y="208.1426">Docker engine</text></g><!--MD5=[12ddfeb2dbc74065392165b6f55039ec]
cluster AppContainer--><g id="cluster_AppContainer"><polygon fill="#FAFAD2" points="82.7485,347,92.7485,337,375.7485,337,375.7485,760.22,365.7485,770.22,82.7485,770.22,82.7485,347" style="stroke:#181818;stroke-width:1.0;"/><line style="stroke:#181818;stroke-width:1.0;" x1="365.7485" x2="375.7485" y1="347" y2="337"/><line style="stroke:#181818;stroke-width:1.0;" x1="82.7485" x2="365.7485" y1="347" y2="347"/><line style="stroke:#181818;stroke-width:1.0;" x1="365.7485" x2="365.7485" y1="347" y2="770.22"/><text fill="#000000" font-family="sans-serif" font-size="14" font-style="italic" lengthAdjust="spacing" textLength="103" x="173.7485" y="364.5332">«AppContainer»</text><text fill="#000000" font-family="sans-serif" font-size="14" font-weight="bold" lengthAdjust="spacing" textLength="153" x="148.7485" y="382.1426">App Service Container</text></g><!--MD5=[d64883541e3d62e3241c4d12decf100d]
cluster Application--><g id="cluster_Application"><path d="M117.2485,468.72 L197.2485,468.72 A3.75,3.75 0 0 1 199.7485,471.22 L206.7485,492.3294 L341.2485,492.3294 A2.5,2.5 0 0 1 343.7485,494.8294 L343.7485,735.72 A2.5,2.5 0 0 1 341.2485,738.22 L117.2485,738.22 A2.5,2.5 0 0 1 114.7485,735.72 L114.7485,471.22 A2.5,2.5 0 0 1 117.2485,468.72 " fill="#D3D3D3" style="stroke:#000000;stroke-width:1.5;"/><line style="stroke:#000000;stroke-width:1.5;" x1="114.7485" x2="206.7485" y1="492.3294" y2="492.3294"/><text fill="#000000" font-family="sans-serif" font-size="14" font-weight="bold" lengthAdjust="spacing" textLength="79" x="118.7485" y="485.2532">Application</text></g><!--MD5=[d8f997f44afa8743ad7472a298acfc89]
cluster DBContainer--><g id="cluster_DBContainer"><polygon fill="#FFB6C1" points="444.7485,617.72,454.7485,607.72,666.7485,607.72,666.7485,735.72,656.7485,745.72,444.7485,745.72,444.7485,617.72" style="stroke:#181818;stroke-width:1.0;"/><line style="stroke:#181818;stroke-width:1.0;" x1="656.7485" x2="666.7485" y1="617.72" y2="607.72"/><line style="stroke:#181818;stroke-width:1.0;" x1="444.7485" x2="656.7485" y1="617.72" y2="617.72"/><line style="stroke:#181818;stroke-width:1.0;" x1="656.7485" x2="656.7485" y1="617.72" y2="745.72"/><text fill="#000000" font-family="sans-serif" font-size="14" font-style="italic" lengthAdjust="spacing" textLength="97" x="503.2485" y="635.2532">«DBContainer»</text><text fill="#000000" font-family="sans-serif" font-size="14" font-weight="bold" lengthAdjust="spacing" textLength="145" x="479.2485" y="652.8626">DB Service Container</text></g><!--MD5=[6b8b02825cfe95eb344cc7ecdff3f734]
entity ApiServiceInterfaceContainer--><g id="elem_ApiServiceInterfaceContainer"><ellipse cx="139.7485" cy="252" fill="#F1F1F1" rx="8" ry="8" style="stroke:#181818;stroke-width:0.5;"/><text fill="#000000" font-family="sans-serif" font-size="14" lengthAdjust="spacing" textLength="84" x="97.7485" y="283.5332">HTTP_HOST</text></g><!--MD5=[c8429aac3e2c5cb74550e1a0f6371b57]
entity DbServiceInterfaceContainer--><g id="elem_DbServiceInterfaceContainer"><ellipse cx="408.7485" cy="698.22" fill="#F1F1F1" rx="8" ry="8" style="stroke:#181818;stroke-width:0.5;"/><text fill="#000000" font-family="sans-serif" font-size="14" lengthAdjust="spacing" textLength="110" x="353.7485" y="729.7532">DB-PORT_HOST</text></g><!--MD5=[5151972157682f9decd04efba8c789b7]
entity ApiService--><g id="elem_ApiService"><rect fill="#EEE8AA" height="47.6094" rx="2.5" ry="2.5" style="stroke:#181818;stroke-width:0.5;" width="144" x="183.7485" y="504.72"/><rect fill="#EEE8AA" height="10" style="stroke:#181818;stroke-width:0.5;" width="15" x="307.7485" y="509.72"/><rect fill="#EEE8AA" height="2" style="stroke:#181818;stroke-width:0.5;" width="4" x="305.7485" y="511.72"/><rect fill="#EEE8AA" height="2" style="stroke:#181818;stroke-width:0.5;" width="4" x="305.7485" y="515.72"/><text fill="#000000" font-family="sans-serif" font-size="14" lengthAdjust="spacing" textLength="104" x="198.7485" y="539.2532">Rest Api Service</text></g><!--MD5=[46d30a4f4884a64aef3690cad749b040]
entity ApiServiceInterface--><g id="elem_ApiServiceInterface"><ellipse cx="139.7485" cy="528.72" fill="#F1F1F1" rx="8" ry="8" style="stroke:#181818;stroke-width:0.5;"/><text fill="#000000" font-family="sans-serif" font-size="14" lengthAdjust="spacing" textLength="37" x="121.2485" y="560.2532">HTTP</text></g><!--MD5=[fe0bae4af69ca8947a410fa6d457e8ef]
entity Adapter--><g id="elem_Adapter"><rect fill="#EEE8AA" height="47.6094" rx="2.5" ry="2.5" style="stroke:#181818;stroke-width:0.5;" width="113" x="210.2485" y="674.22"/><rect fill="#EEE8AA" height="10" style="stroke:#181818;stroke-width:0.5;" width="15" x="303.2485" y="679.22"/><rect fill="#EEE8AA" height="2" style="stroke:#181818;stroke-width:0.5;" width="4" x="301.2485" y="681.22"/><rect fill="#EEE8AA" height="2" style="stroke:#181818;stroke-width:0.5;" width="4" x="301.2485" y="685.22"/><text fill="#000000" font-family="sans-serif" font-size="14" lengthAdjust="spacing" textLength="73" x="225.2485" y="708.7532">DB Adapter</text></g><!--MD5=[c657501c88b555fb773cc8bf0582f716]
entity DBInterface--><g id="elem_DBInterface"><ellipse cx="558.7485" cy="698.22" fill="#F1F1F1" rx="8" ry="8" style="stroke:#181818;stroke-width:0.5;"/><text fill="#000000" font-family="sans-serif" font-size="14" lengthAdjust="spacing" textLength="63" x="527.2485" y="729.7532">DB-PORT</text></g><!--MD5=[f9ba5bf973e7832d2ce5ed59077b93f7]
entity DB--><g id="elem_DB"><path d="M603.2485,684.72 C603.2485,674.72 622.7485,674.72 622.7485,674.72 C622.7485,674.72 642.2485,674.72 642.2485,684.72 L642.2485,711.3294 C642.2485,721.3294 622.7485,721.3294 622.7485,721.3294 C622.7485,721.3294 603.2485,721.3294 603.2485,711.3294 L603.2485,684.72 " fill="#2E8B57" style="stroke:#181818;stroke-width:0.5;"/><path d="M603.2485,684.72 C603.2485,694.72 622.7485,694.72 622.7485,694.72 C622.7485,694.72 642.2485,694.72 642.2485,684.72 " fill="none" style="stroke:#181818;stroke-width:0.5;"/><text fill="#000000" font-family="sans-serif" font-size="14" lengthAdjust="spacing" textLength="19" x="613.2485" y="713.2532">DB</text></g><!--MD5=[0ba5ee7700168656dc1b457c6fe9fdac]
entity Client--><g id="elem_Client"><rect fill="#EEE8AA" height="47.6094" rx="2.5" ry="2.5" style="stroke:#181818;stroke-width:0.5;" width="117" x="81.2485" y="7"/><rect fill="#EEE8AA" height="10" style="stroke:#181818;stroke-width:0.5;" width="15" x="178.2485" y="12"/><rect fill="#EEE8AA" height="2" style="stroke:#181818;stroke-width:0.5;" width="4" x="176.2485" y="14"/><rect fill="#EEE8AA" height="2" style="stroke:#181818;stroke-width:0.5;" width="4" x="176.2485" y="18"/><text fill="#000000" font-family="sans-serif" font-size="14" lengthAdjust="spacing" textLength="77" x="96.2485" y="41.5332">Client HTTP</text></g><!--MD5=[5afdbba86db38ddc1bef881e39ef3d06]
link ApiServiceInterface to ApiService--><g id="link_ApiServiceInterface_ApiService"><path d="M148.8085,528.72 C160.3685,528.72 171.9285,528.72 183.4785,528.72 " fill="none" id="ApiServiceInterface-ApiService" style="stroke:#181818;stroke-width:1.0;"/></g><!--MD5=[308aae72bcc6ccab052079793ab9b9ce]
reverse link ApiService to Adapter--><g id="link_ApiService_Adapter"><path d="M258.1385,566.09 C260.2885,598.92 263.3985,646.22 265.2285,674.13 " fill="none" id="ApiService-backto-Adapter" style="stroke:#181818;stroke-width:1.0;"/><polygon fill="#181818" points="257.2785,553.01,253.6829,559.2607,258.0698,564.9839,261.6655,558.7332,257.2785,553.01" style="stroke:#181818;stroke-width:1.0;"/></g><!--MD5=[692e46aaf26bcf3f319c013fe7d6d4c5]
link AppContainer to ApiServiceInterface--><g id="link_AppContainer_ApiServiceInterface"><path d="M139.7485,388.82 C139.7485,392.41 139.7485,490.61 139.7485,519.68 " fill="none" id="AppContainer-ApiServiceInterface" style="stroke:#181818;stroke-width:1.0;"/><text fill="#000000" font-family="sans-serif" font-size="13" lengthAdjust="spacing" textLength="46" x="140.7485" y="433.2151">5000:80</text></g><!--MD5=[5f896ca54952565c473aeb582c578808]
link ApiServiceInterfaceContainer to AppContainer--><g id="link_ApiServiceInterfaceContainer_AppContainer"><path d="M139.7485,261 C139.7485,275.24 139.7485,306.0725 139.7485,333.715 C139.7485,334.5788 139.7485,335.4395 139.7485,336.2965 C139.7485,336.5108 139.7485,336.7248 139.7485,336.9386 " fill="none" id="ApiServiceInterfaceContainer-AppContainer" style="stroke:#181818;stroke-width:1.0;"/></g><!--MD5=[aa80a8b7c2f7a94dea8f90a31fc54f8b]
link DBInterface to DB--><g id="link_DBInterface_DB"><path d="M568.2485,698.22 C579.8885,698.22 591.5285,698.22 603.1585,698.22 " fill="none" id="DBInterface-DB" style="stroke:#181818;stroke-width:1.0;"/></g><!--MD5=[133a60530c2e976404693b1d43b76649]
link DBInterface to DBContainer--><g id="link_DBInterface_DBContainer"><path d="M549.4485,698.22 C525.0785,698.22 460.7285,698.22 453.4285,698.22 " fill="none" id="DBInterface-DBContainer" style="stroke:#181818;stroke-width:1.0;"/><text fill="#000000" font-family="sans-serif" font-size="13" lengthAdjust="spacing" textLength="60" x="471.4285" y="691.7151">3306:3306</text></g><!--MD5=[844f0c14cc2003f83a95ef2c48341665]
link DbServiceInterfaceContainer to DBContainer--><g id="link_DbServiceInterfaceContainer_DBContainer"><path d="M418.0285,698.22 C423.7235,698.22 429.421,698.22 435.1185,698.22 C437.9673,698.22 440.816,698.22 443.6645,698.22 C444.0205,698.22 444.3766,698.22 444.7326,698.22 " fill="none" id="DbServiceInterfaceContainer-DBContainer" style="stroke:#181818;stroke-width:1.0;"/></g><!--MD5=[b18563d36d78ee7b2011dce888022b62]
link Client to ApiServiceInterfaceContainer--><g id="link_Client_ApiServiceInterfaceContainer"><path d="M139.7485,55.02 C139.7485,100.68 139.7485,201.41 139.7485,237.67 " fill="none" id="Client-to-ApiServiceInterfaceContainer" style="stroke:#181818;stroke-width:1.0;stroke-dasharray:7.0,7.0;"/><polygon fill="#181818" points="139.7485,242.92,143.7485,233.92,139.7485,237.92,135.7485,233.92,139.7485,242.92" style="stroke:#181818;stroke-width:1.0;"/><text fill="#000000" font-family="sans-serif" font-size="13" lengthAdjust="spacing" textLength="21" x="140.7485" y="99.4951">use</text></g><!--MD5=[691bda2dab2fbbc219483a6de49cb343]
link Adapter to DbServiceInterfaceContainer--><g id="link_Adapter_DbServiceInterfaceContainer"><path d="M323.2785,698.22 C349.1285,698.22 377.6485,698.22 394.3385,698.22 " fill="none" id="Adapter-to-DbServiceInterfaceContainer" style="stroke:#181818;stroke-width:1.0;stroke-dasharray:7.0,7.0;"/><polygon fill="#181818" points="399.5285,698.22,390.5285,694.22,394.5285,698.22,390.5285,702.22,399.5285,698.22" style="stroke:#181818;stroke-width:1.0;"/><text fill="#000000" font-family="sans-serif" font-size="13" lengthAdjust="spacing" textLength="21" x="350.9985" y="691.7151">use</text></g><!--MD5=[87e7dccb1466227dd112f55ea576de4b]
@startuml Components

' Create the component + interface for REST API
cloud "Remote Server" as RemoteServer {
    node "Docker engine" as Docker <<docker>> {
        node "App Service Container" as AppContainer <<AppContainer>> {
            package Application {
                [Rest Api Service] as ApiService
                interface HTTP as ApiServiceInterface
                ApiServiceInterface - ApiService

                [DB Adapter] as Adapter
                ApiService *- - Adapter 
            }
        }
        AppContainer -down- ApiServiceInterface: 5000:80
        interface HTTP_HOST as ApiServiceInterfaceContainer
        ApiServiceInterfaceContainer -down- AppContainer
        
        node "DB Service Container" as DBContainer <<DBContainer>> {
            interface "DB-PORT" as DBInterface
            database DB {
                
            }
            DB -left- DBInterface
        }
        DBContainer -left- DBInterface: 3306:3306
        interface "DB-PORT_HOST" as DbServiceInterfaceContainer
        DBContainer -left- DbServiceInterfaceContainer
    }
}

' Create the component for HTTP client
[Client HTTP] as Client
Client ..> ApiServiceInterfaceContainer: use
Adapter .right.> DbServiceInterfaceContainer: use


skinparam component {
    backgroundColor PaleGoldenRod
}
skinparam package {
    backgroundColor LightGrey
}
skinparam cloud {
    backgroundColor lightblue
}
skinparam node {
    backgroundColor<<DBContainer>> LightPink
    backgroundColor<<AppContainer>> LightGoldenRodYellow
    backgroundColor<<docker>> LightGray
}
skinparam database {
    backgroundColor SeaGreen
}

@enduml

@startuml Components

cloud "Remote Server" as RemoteServer {
    node "Docker engine" as Docker <<docker>> {
        node "App Service Container" as AppContainer <<AppContainer>> {
            package Application {
                [Rest Api Service] as ApiService
                interface HTTP as ApiServiceInterface
                ApiServiceInterface - ApiService

                [DB Adapter] as Adapter
                ApiService *- - Adapter 
            }
        }
        AppContainer -down- ApiServiceInterface: 5000:80
        interface HTTP_HOST as ApiServiceInterfaceContainer
        ApiServiceInterfaceContainer -down- AppContainer
        
        node "DB Service Container" as DBContainer <<DBContainer>> {
            interface "DB-PORT" as DBInterface
            database DB {
                
            }
            DB -left- DBInterface
        }
        DBContainer -left- DBInterface: 3306:3306
        interface "DB-PORT_HOST" as DbServiceInterfaceContainer
        DBContainer -left- DbServiceInterfaceContainer
    }
}

[Client HTTP] as Client
Client ..> ApiServiceInterfaceContainer: use
Adapter .right.> DbServiceInterfaceContainer: use


skinparam component {
    backgroundColor PaleGoldenRod
}
skinparam package {
    backgroundColor LightGrey
}
skinparam cloud {
    backgroundColor lightblue
}
skinparam node {
    backgroundColor<<DBContainer>> LightPink
    backgroundColor<<AppContainer>> LightGoldenRodYellow
    backgroundColor<<docker>> LightGray
}
skinparam database {
    backgroundColor SeaGreen
}

@enduml

PlantUML version 1.2022.7(Mon Aug 22 19:01:30 CEST 2022)
(GPL source distribution)
Java Runtime: OpenJDK Runtime Environment
JVM: OpenJDK 64-Bit Server VM
Default Encoding: Cp1252
Language: en
Country: GB
--></g></svg>